<svg version="1.1" id="Layer_1" xmlns="http://www.w3.org/2000/svg" xmlns:xlink="http://www.w3.org/1999/xlink" x="0px" y="0px"
	 width="100%" viewBox="0 0 60 60" enable-background="new 0 0 60 60" xml:space="preserve">
<path fill="#E535AB" opacity="1.000000" stroke="none" 
	d="
M17.000000,61.000000 
	C13.307091,61.000000 9.614182,61.000000 5.461884,60.533382 
	C4.990368,52.934612 5.076408,45.800568 4.939280,38.670818 
	C4.793933,31.113775 4.436518,23.560812 4.522632,15.883261 
	C5.578001,14.252022 6.746737,12.786667 6.891520,11.226301 
	C7.205422,7.843305 6.995641,4.411718 7.000000,1.000000 
	C10.030593,1.000000 13.061187,1.000000 16.605595,1.383706 
	C20.452608,5.331798 24.935207,4.983640 27.000000,1.000000 
	C29.370558,1.000000 31.741114,1.000000 34.617634,1.381361 
	C38.492901,5.318833 42.873795,4.980512 45.000000,1.000000 
	C49.024544,1.000000 53.049088,1.000000 57.538116,1.468549 
	C57.945751,16.299013 57.888901,30.660927 57.550835,45.278435 
	C56.846409,50.689350 56.423206,55.844677 56.000000,61.000000 
	C52.638714,61.000000 49.277424,61.000000 45.423706,60.615131 
	C44.337353,56.468288 41.299492,56.629807 38.929482,57.224972 
	C37.400105,57.609024 36.295158,59.683239 35.000000,61.000000 
	C32.629440,61.000000 30.258884,61.000000 27.383606,60.617714 
	C23.519833,56.675842 19.110067,57.017132 17.000000,61.000000 
M30.371983,19.008684 
	C29.578728,19.343958 28.785475,19.679234 27.517847,20.482510 
	C25.977295,21.696102 24.292809,22.772057 22.950775,24.175484 
	C22.159777,25.002666 21.532198,26.366011 21.580748,27.454794 
	C21.604786,27.993835 23.278858,28.747293 24.283480,28.901482 
	C27.501926,29.395449 30.756371,29.654879 34.175766,30.675844 
	C36.115696,31.784758 38.055626,32.893673 40.166843,34.662598 
	C42.251736,36.438148 44.336624,38.213703 46.421516,39.989254 
	C46.911083,39.483654 47.400646,38.978050 47.890213,38.472450 
	C46.594761,36.980484 45.299309,35.488518 43.877102,33.354759 
	C43.252098,32.236542 42.627098,31.118322 41.872993,29.445457 
	C41.582722,28.963461 41.292446,28.481462 40.764206,27.393938 
	C39.178108,26.265404 37.592010,25.136871 36.469376,23.994246 
	C36.981480,23.656986 37.493584,23.319725 37.827709,22.403131 
	C37.217373,21.604053 36.607040,20.804977 35.388691,19.592611 
	C33.924480,19.400074 32.460266,19.207539 30.371983,19.008684 
M46.882671,23.910215 
	C47.081821,23.887949 47.280975,23.865683 47.480125,23.843416 
	C47.278080,23.782259 47.076031,23.721102 46.882671,23.910215 
z"/>
<path fill="#FFFFFF" opacity="1.000000" stroke="none" 
	d="
M4.171722,16.006065 
	C4.436518,23.560812 4.793933,31.113775 4.939280,38.670818 
	C5.076408,45.800568 4.990368,52.934612 5.001248,60.533382 
	C3.676692,61.000000 2.353383,61.000000 1.000000,61.000000 
	C1.000000,41.987473 0.985719,22.974899 1.032074,3.962471 
	C1.035170,2.692408 -0.032827,0.389999 3.500511,1.466184 
	C4.057923,6.623600 4.114822,11.314833 4.171722,16.006065 
z"/>
<path fill="#FFFFFF" opacity="1.000000" stroke="none" 
	d="
M57.832054,45.022842 
	C57.888901,30.660927 57.945751,16.299013 58.001301,1.468549 
	C59.654381,1.048076 61.163395,0.376374 61.121296,3.501634 
	C60.874359,21.831642 61.002995,40.166668 60.993763,58.499996 
	C60.993095,59.828091 61.492947,61.627689 58.500069,60.533165 
	C57.944111,55.051838 57.888081,50.037338 57.832054,45.022842 
z"/>
<path fill="#E735B1" opacity="1.000000" stroke="none" 
	d="
M4.522632,15.883261 
	C4.114822,11.314833 4.057923,6.623600 4.000511,1.466184 
	C4.750000,1.000000 5.500000,1.000000 6.625000,1.000000 
	C6.995641,4.411718 7.205422,7.843305 6.891520,11.226301 
	C6.746737,12.786667 5.578001,14.252022 4.522632,15.883261 
z"/>
<path fill="#ED2EBF" opacity="1.000000" stroke="none" 
	d="
M35.454109,61.000000 
	C36.295158,59.683239 37.400105,57.609024 38.929482,57.224972 
	C41.299492,56.629807 44.337353,56.468288 44.965637,60.615131 
	C41.969406,61.000000 38.938812,61.000000 35.454109,61.000000 
z"/>
<path fill="#E62DB6" opacity="1.000000" stroke="none" 
	d="
M57.550835,45.278435 
	C57.888081,50.037338 57.944111,55.051838 58.000069,60.533165 
	C57.555553,61.000000 57.111111,61.000000 56.333336,61.000000 
	C56.423206,55.844677 56.846409,50.689350 57.550835,45.278435 
z"/>
<path fill="#EA3FA5" opacity="1.000000" stroke="none" 
	d="
M44.545891,1.000000 
	C42.873795,4.980512 38.492901,5.318833 35.061798,1.381361 
	C38.030594,1.000000 41.061188,1.000000 44.545891,1.000000 
z"/>
<path fill="#F314BD" opacity="1.000000" stroke="none" 
	d="
M26.545891,1.000000 
	C24.935207,4.983640 20.452608,5.331798 17.059706,1.383706 
	C20.030594,1.000000 23.061186,1.000000 26.545891,1.000000 
z"/>
<path fill="#EA239D" opacity="1.000000" stroke="none" 
	d="
M17.454109,61.000000 
	C19.110067,57.017132 23.519833,56.675842 26.939444,60.617714 
	C23.969406,61.000000 20.938814,61.000000 17.454109,61.000000 
z"/>
<path fill="#E92FB0" opacity="1.000000" stroke="none" 
	d="
M33.996922,30.004826 
	C30.756371,29.654879 27.501926,29.395449 24.283480,28.901482 
	C23.278858,28.747293 21.604786,27.993835 21.580748,27.454794 
	C21.532198,26.366011 22.159777,25.002666 22.950775,24.175484 
	C24.292809,22.772057 25.977295,21.696102 28.131638,20.244217 
	C29.498384,20.006063 30.251343,20.006199 31.004112,20.381226 
	C31.003849,21.505899 31.003773,22.255680 31.151592,23.189690 
	C31.510653,23.609644 31.744629,23.820002 31.940512,24.348171 
	C32.618824,25.781910 33.198345,27.614233 34.129192,27.814625 
	C36.331390,28.288706 38.700531,27.987318 41.002174,27.999466 
	C41.292446,28.481462 41.582722,28.963461 41.493065,29.722878 
	C38.741066,30.001808 36.368992,30.003315 33.996922,30.004826 
z"/>
<path fill="#E834AE" opacity="1.000000" stroke="none" 
	d="
M34.086342,30.340334 
	C36.368992,30.003315 38.741066,30.001808 41.557617,30.000202 
	C42.627098,31.118322 43.252098,32.236542 43.539612,33.676701 
	C42.133270,33.999958 41.064411,34.001274 39.995556,34.002586 
	C38.055626,32.893673 36.115696,31.784758 34.086342,30.340334 
z"/>
<path fill="#EB31AF" opacity="1.000000" stroke="none" 
	d="
M40.883190,27.696701 
	C38.700531,27.987318 36.331390,28.288706 34.129192,27.814625 
	C33.198345,27.614233 32.618824,25.781910 32.340820,24.346357 
	C33.869991,24.003687 34.937954,24.006012 36.005917,24.008339 
	C37.592010,25.136871 39.178108,26.265404 40.883190,27.696701 
z"/>
<path fill="#EA2FAC" opacity="1.000000" stroke="none" 
	d="
M40.081200,34.332592 
	C41.064411,34.001274 42.133270,33.999958 43.602989,33.997597 
	C45.299309,35.488518 46.594761,36.980484 47.890213,38.472450 
	C47.400646,38.978050 46.911083,39.483654 46.421516,39.989254 
	C44.336624,38.213703 42.251736,36.438148 40.081200,34.332592 
z"/>
<path fill="#E930AA" opacity="1.000000" stroke="none" 
	d="
M31.003696,23.005463 
	C31.003773,22.255680 31.003849,21.505899 31.002228,20.377836 
	C31.000532,19.999556 31.007191,19.996033 31.422859,19.997337 
	C33.224586,20.001059 34.610645,20.003479 35.996704,20.005899 
	C36.607040,20.804977 37.217373,21.604053 37.478630,22.697796 
	C35.087601,22.996794 33.045650,23.001129 31.003696,23.005463 
z"/>
<path fill="#F129B8" opacity="1.000000" stroke="none" 
	d="
M31.151592,23.189690 
	C33.045650,23.001129 35.087601,22.996794 37.567619,22.987463 
	C37.493584,23.319725 36.981480,23.656986 36.237648,24.001291 
	C34.937954,24.006012 33.869991,24.003687 32.401718,24.003178 
	C31.744629,23.820002 31.510653,23.609644 31.151592,23.189690 
z"/>
<path fill="#F128BC" opacity="1.000000" stroke="none" 
	d="
M31.002417,20.002945 
	C30.251343,20.006199 29.498384,20.006063 28.368824,20.010218 
	C28.785475,19.679234 29.578728,19.343958 30.686592,19.257015 
	C31.001202,19.505344 31.007191,19.996033 31.007191,19.996033 
	C31.007191,19.996033 31.000532,19.999556 31.002417,20.002945 
z"/>
<path fill="#EE26AE" opacity="1.000000" stroke="none" 
	d="
M31.422859,19.997337 
	C31.007191,19.996033 31.001202,19.505344 30.998627,19.260174 
	C32.460266,19.207539 33.924480,19.400074 35.692696,19.799255 
	C34.610645,20.003479 33.224586,20.001059 31.422859,19.997337 
z"/>
<path fill="#F11A8F" opacity="1.000000" stroke="none" 
	d="
M46.878326,23.785080 
	C47.076031,23.721102 47.278080,23.782259 47.480125,23.843416 
	C47.280975,23.865683 47.081821,23.887949 46.878326,23.785080 
z"/>
</svg>